<?xml version="1.0" encoding="UTF-8"?>
<svg xmlns="http://www.w3.org/2000/svg" width="1800" height="1110" viewBox="0 0 1800 1110">
<style>
        .metricTitle{font:700 34px 'Times New Roman','Songti TC',serif;fill:#2d3748}
        .metricSub{font:500 21px 'Times New Roman','Songti TC',serif;fill:#8291a0}
        .window{font:700 21px 'Times New Roman','Songti TC',serif;fill:#2d3748}
        .model{font:500 22px 'Times New Roman','Songti TC',serif;fill:#2d3748}
        .value{font:500 21px 'Times New Roman','Songti TC',serif}
        .best{font:700 21px 'Times New Roman','Songti TC',serif}
        .group{font:500 18px 'Times New Roman','Songti TC',serif;fill:#8291a0}
        .note{font:500 19px 'Times New Roman','Songti TC',serif;fill:#59697a}
        </style>
<rect x="0" y="0" width="1800" height="1110" rx="0" fill="#ffffff" stroke="none" stroke-width="0"/>
<rect x="20" y="222" width="232" height="300" rx="8" fill="#fffdf8" stroke="none" stroke-width="0"/>
<rect x="20" y="222" width="7" height="300" rx="3" fill="#8291a0" stroke="none" stroke-width="0"/>
<text class="group" x="38" y="246" text-anchor="start">基準模型</text>
<rect x="20" y="526" width="232" height="224" rx="8" fill="#f7fafc" stroke="none" stroke-width="0"/>
<rect x="20" y="526" width="7" height="224" rx="3" fill="#8291a0" stroke="none" stroke-width="0"/>
<text class="group" x="38" y="550" text-anchor="start">GAT 模型</text>
<rect x="20" y="754" width="232" height="148" rx="8" fill="#faf8ff" stroke="none" stroke-width="0"/>
<rect x="20" y="754" width="7" height="148" rx="3" fill="#8291a0" stroke="none" stroke-width="0"/>
<text class="group" x="38" y="778" text-anchor="start">中性化模型</text>
<text class="model" x="260" y="265.0" text-anchor="end">Linear</text>
<text class="model" x="260" y="341.0" text-anchor="end">XGBoost</text>
<text class="model" x="260" y="417.0" text-anchor="end">LSTM</text>
<text class="model" x="260" y="493.0" text-anchor="end">DNN</text>
<text class="model" x="260" y="569.0" text-anchor="end">GAT-industry</text>
<text class="model" x="260" y="645.0" text-anchor="end">GAT-universe</text>
<text class="model" x="260" y="721.0" text-anchor="end">GAT-TwoGraph</text>
<text class="model" x="260" y="797.0" text-anchor="end">GAT-IndNeutral</text>
<text class="model" x="260" y="873.0" text-anchor="end">GAT-full</text>
<text class="metricTitle" x="525.0" y="63" text-anchor="middle">Daily IC</text>
<text class="metricSub" x="525.0" y="98" text-anchor="middle">排序訊號</text>
<rect x="300" y="145" width="150" height="58" rx="5" fill="#edf2f7" stroke="#d9e2ec" stroke-width="1.5"/>
<text class="window" x="375.0" y="182" text-anchor="middle">Short</text>
<rect x="450" y="145" width="150" height="58" rx="5" fill="#edf2f7" stroke="#d9e2ec" stroke-width="1.5"/>
<text class="window" x="525.0" y="182" text-anchor="middle">Medium</text>
<rect x="600" y="145" width="150" height="58" rx="5" fill="#edf2f7" stroke="#d9e2ec" stroke-width="1.5"/>
<text class="window" x="675.0" y="182" text-anchor="middle">Long</text>
<rect x="300" y="220" width="150" height="76" rx="4" fill="#d8e4f0" stroke="#d9e2ec" stroke-width="1.5"/>
<text class="value" x="375.0" y="265.0" text-anchor="middle" fill="#2d3748">0.0036</text>
<rect x="450" y="220" width="150" height="76" rx="4" fill="#96b7d8" stroke="#d9e2ec" stroke-width="1.5"/>
<text class="value" x="525.0" y="265.0" text-anchor="middle" fill="#2d3748">0.0253</text>
<rect x="600" y="220" width="150" height="76" rx="4" fill="#a2bfdc" stroke="#d9e2ec" stroke-width="1.5"/>
<text class="value" x="675.0" y="265.0" text-anchor="middle" fill="#2d3748">0.0214</text>
<rect x="300" y="296" width="150" height="76" rx="4" fill="#94b5d7" stroke="#d9e2ec" stroke-width="1.5"/>
<text class="value" x="375.0" y="341.0" text-anchor="middle" fill="#2d3748">0.0261</text>
<rect x="450" y="296" width="150" height="76" rx="4" fill="#5086be" stroke="#d9e2ec" stroke-width="1.5"/>
<text class="value" x="525.0" y="341.0" text-anchor="middle" fill="#ffffff">0.0485</text>
<rect x="600" y="296" width="150" height="76" rx="4" fill="#6896c7" stroke="#d9e2ec" stroke-width="1.5"/>
<text class="value" x="675.0" y="341.0" text-anchor="middle" fill="#ffffff">0.0408</text>
<rect x="300" y="372" width="150" height="76" rx="4" fill="#d1e0ee" stroke="#d9e2ec" stroke-width="1.5"/>
<text class="value" x="375.0" y="417.0" text-anchor="middle" fill="#2d3748">0.0057</text>
<rect x="450" y="372" width="150" height="76" rx="4" fill="#77a1cc" stroke="#d9e2ec" stroke-width="1.5"/>
<text class="value" x="525.0" y="417.0" text-anchor="middle" fill="#2d3748">0.0359</text>
<rect x="600" y="372" width="150" height="76" rx="4" fill="#6594c6" stroke="#d9e2ec" stroke-width="1.5"/>
<text class="value" x="675.0" y="417.0" text-anchor="middle" fill="#ffffff">0.0418</text>
<rect x="300" y="448" width="150" height="76" rx="4" fill="#6b99c8" stroke="#2d3748" stroke-width="4"/>
<text class="best" x="375.0" y="493.0" text-anchor="middle" fill="#2d3748">0.0396</text>
<rect x="450" y="448" width="150" height="76" rx="4" fill="#5a8dc2" stroke="#d9e2ec" stroke-width="1.5"/>
<text class="value" x="525.0" y="493.0" text-anchor="middle" fill="#ffffff">0.0453</text>
<rect x="600" y="448" width="150" height="76" rx="4" fill="#417cb8" stroke="#d9e2ec" stroke-width="1.5"/>
<text class="value" x="675.0" y="493.0" text-anchor="middle" fill="#ffffff">0.0535</text>
<rect x="300" y="524" width="150" height="76" rx="4" fill="#90b2d5" stroke="#d9e2ec" stroke-width="1.5"/>
<text class="value" x="375.0" y="569.0" text-anchor="middle" fill="#2d3748">0.0276</text>
<rect x="450" y="524" width="150" height="76" rx="4" fill="#5d8fc3" stroke="#d9e2ec" stroke-width="1.5"/>
<text class="value" x="525.0" y="569.0" text-anchor="middle" fill="#ffffff">0.0445</text>
<rect x="600" y="524" width="150" height="76" rx="4" fill="#3f7ab7" stroke="#d9e2ec" stroke-width="1.5"/>
<text class="value" x="675.0" y="569.0" text-anchor="middle" fill="#ffffff">0.0543</text>
<rect x="300" y="600" width="150" height="76" rx="4" fill="#8fb2d5" stroke="#d9e2ec" stroke-width="1.5"/>
<text class="value" x="375.0" y="645.0" text-anchor="middle" fill="#2d3748">0.0277</text>
<rect x="450" y="600" width="150" height="76" rx="4" fill="#719dca" stroke="#d9e2ec" stroke-width="1.5"/>
<text class="value" x="525.0" y="645.0" text-anchor="middle" fill="#2d3748">0.0377</text>
<rect x="600" y="600" width="150" height="76" rx="4" fill="#5a8dc2" stroke="#d9e2ec" stroke-width="1.5"/>
<text class="value" x="675.0" y="645.0" text-anchor="middle" fill="#ffffff">0.0452</text>
<rect x="300" y="676" width="150" height="76" rx="4" fill="#91b3d6" stroke="#d9e2ec" stroke-width="1.5"/>
<text class="value" x="375.0" y="721.0" text-anchor="middle" fill="#2d3748">0.0271</text>
<rect x="450" y="676" width="150" height="76" rx="4" fill="#407ab8" stroke="#d9e2ec" stroke-width="1.5"/>
<text class="value" x="525.0" y="721.0" text-anchor="middle" fill="#ffffff">0.0541</text>
<rect x="600" y="676" width="150" height="76" rx="4" fill="#4880bb" stroke="#d9e2ec" stroke-width="1.5"/>
<text class="value" x="675.0" y="721.0" text-anchor="middle" fill="#ffffff">0.0512</text>
<rect x="300" y="752" width="150" height="76" rx="4" fill="#7da5ce" stroke="#d9e2ec" stroke-width="1.5"/>
<text class="value" x="375.0" y="797.0" text-anchor="middle" fill="#2d3748">0.0338</text>
<rect x="450" y="752" width="150" height="76" rx="4" fill="#4c83bc" stroke="#d9e2ec" stroke-width="1.5"/>
<text class="value" x="525.0" y="797.0" text-anchor="middle" fill="#ffffff">0.0499</text>
<rect x="600" y="752" width="150" height="76" rx="4" fill="#3170b2" stroke="#2d3748" stroke-width="4"/>
<text class="best" x="675.0" y="797.0" text-anchor="middle" fill="#ffffff">0.0590</text>
<rect x="300" y="828" width="150" height="76" rx="4" fill="#a1bedc" stroke="#d9e2ec" stroke-width="1.5"/>
<text class="value" x="375.0" y="873.0" text-anchor="middle" fill="#2d3748">0.0217</text>
<rect x="450" y="828" width="150" height="76" rx="4" fill="#2f6fb2" stroke="#2d3748" stroke-width="4"/>
<text class="best" x="525.0" y="873.0" text-anchor="middle" fill="#ffffff">0.0596</text>
<rect x="600" y="828" width="150" height="76" rx="4" fill="#3372b3" stroke="#d9e2ec" stroke-width="1.5"/>
<text class="value" x="675.0" y="873.0" text-anchor="middle" fill="#ffffff">0.0583</text>
<text class="metricTitle" x="1030.0" y="63" text-anchor="middle">ICIR</text>
<text class="metricSub" x="1030.0" y="98" text-anchor="middle">訊號穩定性</text>
<rect x="805" y="145" width="150" height="58" rx="5" fill="#edf2f7" stroke="#d9e2ec" stroke-width="1.5"/>
<text class="window" x="880.0" y="182" text-anchor="middle">Short</text>
<rect x="955" y="145" width="150" height="58" rx="5" fill="#edf2f7" stroke="#d9e2ec" stroke-width="1.5"/>
<text class="window" x="1030.0" y="182" text-anchor="middle">Medium</text>
<rect x="1105" y="145" width="150" height="58" rx="5" fill="#edf2f7" stroke="#d9e2ec" stroke-width="1.5"/>
<text class="window" x="1180.0" y="182" text-anchor="middle">Long</text>
<rect x="805" y="220" width="150" height="76" rx="4" fill="#dae6f1" stroke="#d9e2ec" stroke-width="1.5"/>
<text class="value" x="880.0" y="265.0" text-anchor="middle" fill="#2d3748">0.037</text>
<rect x="955" y="220" width="150" height="76" rx="4" fill="#a3c0dd" stroke="#d9e2ec" stroke-width="1.5"/>
<text class="value" x="1030.0" y="265.0" text-anchor="middle" fill="#2d3748">0.278</text>
<rect x="1105" y="220" width="150" height="76" rx="4" fill="#adc6e0" stroke="#d9e2ec" stroke-width="1.5"/>
<text class="value" x="1180.0" y="265.0" text-anchor="middle" fill="#2d3748">0.235</text>
<rect x="805" y="296" width="150" height="76" rx="4" fill="#b3cbe3" stroke="#d9e2ec" stroke-width="1.5"/>
<text class="value" x="880.0" y="341.0" text-anchor="middle" fill="#2d3748">0.209</text>
<rect x="955" y="296" width="150" height="76" rx="4" fill="#80a7d0" stroke="#d9e2ec" stroke-width="1.5"/>
<text class="value" x="1030.0" y="341.0" text-anchor="middle" fill="#2d3748">0.430</text>
<rect x="1105" y="296" width="150" height="76" rx="4" fill="#7aa3cd" stroke="#d9e2ec" stroke-width="1.5"/>
<text class="value" x="1180.0" y="341.0" text-anchor="middle" fill="#2d3748">0.459</text>
<rect x="805" y="372" width="150" height="76" rx="4" fill="#d8e4f0" stroke="#d9e2ec" stroke-width="1.5"/>
<text class="value" x="880.0" y="417.0" text-anchor="middle" fill="#2d3748">0.048</text>
<rect x="955" y="372" width="150" height="76" rx="4" fill="#94b5d7" stroke="#d9e2ec" stroke-width="1.5"/>
<text class="value" x="1030.0" y="417.0" text-anchor="middle" fill="#2d3748">0.345</text>
<rect x="1105" y="372" width="150" height="76" rx="4" fill="#75a0cc" stroke="#d9e2ec" stroke-width="1.5"/>
<text class="value" x="1180.0" y="417.0" text-anchor="middle" fill="#2d3748">0.479</text>
<rect x="805" y="448" width="150" height="76" rx="4" fill="#85abd2" stroke="#2d3748" stroke-width="4"/>
<text class="best" x="880.0" y="493.0" text-anchor="middle" fill="#2d3748">0.408</text>
<rect x="955" y="448" width="150" height="76" rx="4" fill="#5e8fc3" stroke="#d9e2ec" stroke-width="1.5"/>
<text class="value" x="1030.0" y="493.0" text-anchor="middle" fill="#ffffff">0.581</text>
<rect x="1105" y="448" width="150" height="76" rx="4" fill="#3d78b7" stroke="#d9e2ec" stroke-width="1.5"/>
<text class="value" x="1180.0" y="493.0" text-anchor="middle" fill="#ffffff">0.726</text>
<rect x="805" y="524" width="150" height="76" rx="4" fill="#adc7e0" stroke="#d9e2ec" stroke-width="1.5"/>
<text class="value" x="880.0" y="569.0" text-anchor="middle" fill="#2d3748">0.234</text>
<rect x="955" y="524" width="150" height="76" rx="4" fill="#749fcb" stroke="#d9e2ec" stroke-width="1.5"/>
<text class="value" x="1030.0" y="569.0" text-anchor="middle" fill="#2d3748">0.485</text>
<rect x="1105" y="524" width="150" height="76" rx="4" fill="#4880bb" stroke="#d9e2ec" stroke-width="1.5"/>
<text class="value" x="1180.0" y="569.0" text-anchor="middle" fill="#ffffff">0.677</text>
<rect x="805" y="600" width="150" height="76" rx="4" fill="#a8c3de" stroke="#d9e2ec" stroke-width="1.5"/>
<text class="value" x="880.0" y="645.0" text-anchor="middle" fill="#2d3748">0.258</text>
<rect x="955" y="600" width="150" height="76" rx="4" fill="#92b4d7" stroke="#d9e2ec" stroke-width="1.5"/>
<text class="value" x="1030.0" y="645.0" text-anchor="middle" fill="#2d3748">0.351</text>
<rect x="1105" y="600" width="150" height="76" rx="4" fill="#6a98c8" stroke="#d9e2ec" stroke-width="1.5"/>
<text class="value" x="1180.0" y="645.0" text-anchor="middle" fill="#2d3748">0.526</text>
<rect x="805" y="676" width="150" height="76" rx="4" fill="#aac4df" stroke="#d9e2ec" stroke-width="1.5"/>
<text class="value" x="880.0" y="721.0" text-anchor="middle" fill="#2d3748">0.250</text>
<rect x="955" y="676" width="150" height="76" rx="4" fill="#5a8dc2" stroke="#d9e2ec" stroke-width="1.5"/>
<text class="value" x="1030.0" y="721.0" text-anchor="middle" fill="#ffffff">0.597</text>
<rect x="1105" y="676" width="150" height="76" rx="4" fill="#709cca" stroke="#d9e2ec" stroke-width="1.5"/>
<text class="value" x="1180.0" y="721.0" text-anchor="middle" fill="#2d3748">0.504</text>
<rect x="805" y="752" width="150" height="76" rx="4" fill="#99b9d9" stroke="#d9e2ec" stroke-width="1.5"/>
<text class="value" x="880.0" y="797.0" text-anchor="middle" fill="#2d3748">0.320</text>
<rect x="955" y="752" width="150" height="76" rx="4" fill="#6796c7" stroke="#d9e2ec" stroke-width="1.5"/>
<text class="value" x="1030.0" y="797.0" text-anchor="middle" fill="#ffffff">0.539</text>
<rect x="1105" y="752" width="150" height="76" rx="4" fill="#2f6fb2" stroke="#2d3748" stroke-width="4"/>
<text class="best" x="1180.0" y="797.0" text-anchor="middle" fill="#ffffff">0.786</text>
<rect x="805" y="828" width="150" height="76" rx="4" fill="#b8cee5" stroke="#d9e2ec" stroke-width="1.5"/>
<text class="value" x="880.0" y="873.0" text-anchor="middle" fill="#2d3748">0.186</text>
<rect x="955" y="828" width="150" height="76" rx="4" fill="#5388bf" stroke="#2d3748" stroke-width="4"/>
<text class="best" x="1030.0" y="873.0" text-anchor="middle" fill="#ffffff">0.628</text>
<rect x="1105" y="828" width="150" height="76" rx="4" fill="#3b77b6" stroke="#d9e2ec" stroke-width="1.5"/>
<text class="value" x="1180.0" y="873.0" text-anchor="middle" fill="#ffffff">0.735</text>
<text class="metricTitle" x="1535.0" y="63" text-anchor="middle">Sharpe</text>
<text class="metricSub" x="1535.0" y="98" text-anchor="middle">投資可用性</text>
<rect x="1310" y="145" width="150" height="58" rx="5" fill="#edf2f7" stroke="#d9e2ec" stroke-width="1.5"/>
<text class="window" x="1385.0" y="182" text-anchor="middle">Short</text>
<rect x="1460" y="145" width="150" height="58" rx="5" fill="#edf2f7" stroke="#d9e2ec" stroke-width="1.5"/>
<text class="window" x="1535.0" y="182" text-anchor="middle">Medium</text>
<rect x="1610" y="145" width="150" height="58" rx="5" fill="#edf2f7" stroke="#d9e2ec" stroke-width="1.5"/>
<text class="window" x="1685.0" y="182" text-anchor="middle">Long</text>
<rect x="1310" y="220" width="150" height="76" rx="4" fill="#e3ecf4" stroke="#d9e2ec" stroke-width="1.5"/>
<text class="value" x="1385.0" y="265.0" text-anchor="middle" fill="#2d3748">-0.423</text>
<rect x="1460" y="220" width="150" height="76" rx="4" fill="#95b6d7" stroke="#d9e2ec" stroke-width="1.5"/>
<text class="value" x="1535.0" y="265.0" text-anchor="middle" fill="#2d3748">0.561</text>
<rect x="1610" y="220" width="150" height="76" rx="4" fill="#7ba4ce" stroke="#d9e2ec" stroke-width="1.5"/>
<text class="value" x="1685.0" y="265.0" text-anchor="middle" fill="#2d3748">0.884</text>
<rect x="1310" y="296" width="150" height="76" rx="4" fill="#c0d4e8" stroke="#d9e2ec" stroke-width="1.5"/>
<text class="value" x="1385.0" y="341.0" text-anchor="middle" fill="#2d3748">0.010</text>
<rect x="1460" y="296" width="150" height="76" rx="4" fill="#77a1cc" stroke="#d9e2ec" stroke-width="1.5"/>
<text class="value" x="1535.0" y="341.0" text-anchor="middle" fill="#2d3748">0.938</text>
<rect x="1610" y="296" width="150" height="76" rx="4" fill="#3a76b5" stroke="#d9e2ec" stroke-width="1.5"/>
<text class="value" x="1685.0" y="341.0" text-anchor="middle" fill="#ffffff">1.714</text>
<rect x="1310" y="372" width="150" height="76" rx="4" fill="#d3e1ef" stroke="#d9e2ec" stroke-width="1.5"/>
<text class="value" x="1385.0" y="417.0" text-anchor="middle" fill="#2d3748">-0.223</text>
<rect x="1460" y="372" width="150" height="76" rx="4" fill="#84aad1" stroke="#d9e2ec" stroke-width="1.5"/>
<text class="value" x="1535.0" y="417.0" text-anchor="middle" fill="#2d3748">0.776</text>
<rect x="1610" y="372" width="150" height="76" rx="4" fill="#588bc1" stroke="#d9e2ec" stroke-width="1.5"/>
<text class="value" x="1685.0" y="417.0" text-anchor="middle" fill="#ffffff">1.336</text>
<rect x="1310" y="448" width="150" height="76" rx="4" fill="#c9daeb" stroke="#d9e2ec" stroke-width="1.5"/>
<text class="value" x="1385.0" y="493.0" text-anchor="middle" fill="#2d3748">-0.098</text>
<rect x="1460" y="448" width="150" height="76" rx="4" fill="#749fcb" stroke="#2d3748" stroke-width="4"/>
<text class="best" x="1535.0" y="493.0" text-anchor="middle" fill="#2d3748">0.980</text>
<rect x="1610" y="448" width="150" height="76" rx="4" fill="#467fba" stroke="#d9e2ec" stroke-width="1.5"/>
<text class="value" x="1685.0" y="493.0" text-anchor="middle" fill="#ffffff">1.564</text>
<rect x="1310" y="524" width="150" height="76" rx="4" fill="#bdd1e6" stroke="#2d3748" stroke-width="4"/>
<text class="best" x="1385.0" y="569.0" text-anchor="middle" fill="#2d3748">0.057</text>
<rect x="1460" y="524" width="150" height="76" rx="4" fill="#7aa3cd" stroke="#d9e2ec" stroke-width="1.5"/>
<text class="value" x="1535.0" y="569.0" text-anchor="middle" fill="#2d3748">0.900</text>
<rect x="1610" y="524" width="150" height="76" rx="4" fill="#3573b4" stroke="#d9e2ec" stroke-width="1.5"/>
<text class="value" x="1685.0" y="569.0" text-anchor="middle" fill="#ffffff">1.779</text>
<rect x="1310" y="600" width="150" height="76" rx="4" fill="#c9daeb" stroke="#d9e2ec" stroke-width="1.5"/>
<text class="value" x="1385.0" y="645.0" text-anchor="middle" fill="#2d3748">-0.093</text>
<rect x="1460" y="600" width="150" height="76" rx="4" fill="#86abd2" stroke="#d9e2ec" stroke-width="1.5"/>
<text class="value" x="1535.0" y="645.0" text-anchor="middle" fill="#2d3748">0.755</text>
<rect x="1610" y="600" width="150" height="76" rx="4" fill="#4a82bc" stroke="#d9e2ec" stroke-width="1.5"/>
<text class="value" x="1685.0" y="645.0" text-anchor="middle" fill="#ffffff">1.506</text>
<rect x="1310" y="676" width="150" height="76" rx="4" fill="#c7d9ea" stroke="#d9e2ec" stroke-width="1.5"/>
<text class="value" x="1385.0" y="721.0" text-anchor="middle" fill="#2d3748">-0.073</text>
<rect x="1460" y="676" width="150" height="76" rx="4" fill="#7ca5ce" stroke="#d9e2ec" stroke-width="1.5"/>
<text class="value" x="1535.0" y="721.0" text-anchor="middle" fill="#2d3748">0.872</text>
<rect x="1610" y="676" width="150" height="76" rx="4" fill="#3170b2" stroke="#d9e2ec" stroke-width="1.5"/>
<text class="value" x="1685.0" y="721.0" text-anchor="middle" fill="#ffffff">1.827</text>
<rect x="1310" y="752" width="150" height="76" rx="4" fill="#c1d4e8" stroke="#d9e2ec" stroke-width="1.5"/>
<text class="value" x="1385.0" y="797.0" text-anchor="middle" fill="#2d3748">0.003</text>
<rect x="1460" y="752" width="150" height="76" rx="4" fill="#7fa6cf" stroke="#d9e2ec" stroke-width="1.5"/>
<text class="value" x="1535.0" y="797.0" text-anchor="middle" fill="#2d3748">0.839</text>
<rect x="1610" y="752" width="150" height="76" rx="4" fill="#3371b3" stroke="#d9e2ec" stroke-width="1.5"/>
<text class="value" x="1685.0" y="797.0" text-anchor="middle" fill="#ffffff">1.803</text>
<rect x="1310" y="828" width="150" height="76" rx="4" fill="#cfdeed" stroke="#d9e2ec" stroke-width="1.5"/>
<text class="value" x="1385.0" y="873.0" text-anchor="middle" fill="#2d3748">-0.171</text>
<rect x="1460" y="828" width="150" height="76" rx="4" fill="#7aa3cd" stroke="#d9e2ec" stroke-width="1.5"/>
<text class="value" x="1535.0" y="873.0" text-anchor="middle" fill="#2d3748">0.906</text>
<rect x="1610" y="828" width="150" height="76" rx="4" fill="#2f6fb2" stroke="#2d3748" stroke-width="4"/>
<text class="best" x="1685.0" y="873.0" text-anchor="middle" fill="#ffffff">1.849</text>
<line x1="20" y1="524" x2="1760" y2="524" stroke="#2d3748" stroke-opacity="0.30" stroke-width="2"/>
<line x1="20" y1="752" x2="1760" y2="752" stroke="#2d3748" stroke-opacity="0.30" stroke-width="2"/>
<rect x="395.0" y="960" width="18.1875" height="22" rx="0" fill="#f7fafc" stroke="none" stroke-width="0"/>
<rect x="412.1875" y="960" width="18.1875" height="22" rx="0" fill="#e9f1f7" stroke="none" stroke-width="0"/>
<rect x="429.375" y="960" width="18.1875" height="22" rx="0" fill="#dce7f2" stroke="none" stroke-width="0"/>
<rect x="446.5625" y="960" width="18.1875" height="22" rx="0" fill="#cedeed" stroke="none" stroke-width="0"/>
<rect x="463.75" y="960" width="18.1875" height="22" rx="0" fill="#c1d4e8" stroke="none" stroke-width="0"/>
<rect x="480.9375" y="960" width="18.1875" height="22" rx="0" fill="#b3cbe3" stroke="none" stroke-width="0"/>
<rect x="498.125" y="960" width="18.1875" height="22" rx="0" fill="#a5c1de" stroke="none" stroke-width="0"/>
<rect x="515.3125" y="960" width="18.1875" height="22" rx="0" fill="#98b8d9" stroke="none" stroke-width="0"/>
<rect x="532.5" y="960" width="18.1875" height="22" rx="0" fill="#8aaed3" stroke="none" stroke-width="0"/>
<rect x="549.6875" y="960" width="18.1875" height="22" rx="0" fill="#7da5ce" stroke="none" stroke-width="0"/>
<rect x="566.875" y="960" width="18.1875" height="22" rx="0" fill="#6f9bc9" stroke="none" stroke-width="0"/>
<rect x="584.0625" y="960" width="18.1875" height="22" rx="0" fill="#6192c4" stroke="none" stroke-width="0"/>
<rect x="601.25" y="960" width="18.1875" height="22" rx="0" fill="#5488bf" stroke="none" stroke-width="0"/>
<rect x="618.4375" y="960" width="18.1875" height="22" rx="0" fill="#467fba" stroke="none" stroke-width="0"/>
<rect x="635.625" y="960" width="18.1875" height="22" rx="0" fill="#3975b5" stroke="none" stroke-width="0"/>
<rect x="652.8125" y="960" width="18.1875" height="22" rx="0" fill="#2b6cb0" stroke="none" stroke-width="0"/>
<text class="note" x="377" y="978" text-anchor="end">低</text>
<text class="note" x="688" y="978" text-anchor="start">高</text>
<text class="note" x="900.0" y="1035" text-anchor="middle">色彩越深代表指標越高；粗框標示各視窗的最佳模型。完整指標與數值見後表。</text>
</svg>