<svg xmlns="http://www.w3.org/2000/svg" width="1900" height="650" viewBox="0 0 1900 650">
<rect width="100%" height="100%" fill="white"/>
<text x="950" y="58" text-anchor="middle" font-family="Arial" font-size="28" font-weight="700">Chronological Train / Validation / Test Split by Window</text>
<line x1="270" y1="92" x2="270" y2="505" stroke="#dedede"/>
<text x="270" y="528" text-anchor="middle" font-family="Arial" font-size="17" fill="#555">2014</text>
<line x1="392" y1="92" x2="392" y2="505" stroke="#dedede"/>
<text x="392" y="528" text-anchor="middle" font-family="Arial" font-size="17" fill="#555">2015</text>
<line x1="514" y1="92" x2="514" y2="505" stroke="#dedede"/>
<text x="514" y="528" text-anchor="middle" font-family="Arial" font-size="17" fill="#555">2016</text>
<line x1="637" y1="92" x2="637" y2="505" stroke="#dedede"/>
<text x="637" y="528" text-anchor="middle" font-family="Arial" font-size="17" fill="#555">2017</text>
<line x1="760" y1="92" x2="760" y2="505" stroke="#dedede"/>
<text x="760" y="528" text-anchor="middle" font-family="Arial" font-size="17" fill="#555">2018</text>
<line x1="882" y1="92" x2="882" y2="505" stroke="#dedede"/>
<text x="882" y="528" text-anchor="middle" font-family="Arial" font-size="17" fill="#555">2019</text>
<line x1="1005" y1="92" x2="1005" y2="505" stroke="#dedede"/>
<text x="1005" y="528" text-anchor="middle" font-family="Arial" font-size="17" fill="#555">2020</text>
<line x1="1127" y1="92" x2="1127" y2="505" stroke="#dedede"/>
<text x="1127" y="528" text-anchor="middle" font-family="Arial" font-size="17" fill="#555">2021</text>
<line x1="1250" y1="92" x2="1250" y2="505" stroke="#dedede"/>
<text x="1250" y="528" text-anchor="middle" font-family="Arial" font-size="17" fill="#555">2022</text>
<line x1="1372" y1="92" x2="1372" y2="505" stroke="#dedede"/>
<text x="1372" y="528" text-anchor="middle" font-family="Arial" font-size="17" fill="#555">2023</text>
<line x1="1495" y1="92" x2="1495" y2="505" stroke="#dedede"/>
<text x="1495" y="528" text-anchor="middle" font-family="Arial" font-size="17" fill="#555">2024</text>
<line x1="1617" y1="92" x2="1617" y2="505" stroke="#dedede"/>
<text x="1617" y="528" text-anchor="middle" font-family="Arial" font-size="17" fill="#555">2025</text>
<text x="232" y="162" text-anchor="end" font-family="Arial" font-size="22" font-weight="700">Short</text>
<rect x="1373" y="135" width="211" height="42" rx="4" fill="#3B73B9" stroke="white" stroke-width="3"/>
<text x="1478" y="162" text-anchor="middle" font-family="Arial" font-size="17" font-weight="700" fill="white">Train 414d</text>
<rect x="1584" y="135" width="23" height="42" rx="4" fill="#D89C2B" stroke="white" stroke-width="3"/>
<line x1="1595" y1="135" x2="1595" y2="107" stroke="#666"/>
<text x="1595" y="120" text-anchor="middle" font-family="Arial" font-size="15" fill="#333">Validation 46d</text>
<rect x="1608" y="135" width="59" height="42" rx="4" fill="#B54A4A" stroke="white" stroke-width="3"/>
<line x1="1637" y1="177" x2="1637" y2="205" stroke="#666"/>
<text x="1637" y="202" text-anchor="middle" font-family="Arial" font-size="15" fill="#333">Test 116d</text>
<text x="232" y="282" text-anchor="end" font-family="Arial" font-size="22" font-weight="700">Medium</text>
<rect x="882" y="255" width="564" height="42" rx="4" fill="#3B73B9" stroke="white" stroke-width="3"/>
<text x="1164" y="282" text-anchor="middle" font-family="Arial" font-size="17" font-weight="700" fill="white">Train 1118d</text>
<rect x="1447" y="255" width="63" height="42" rx="4" fill="#D89C2B" stroke="white" stroke-width="3"/>
<line x1="1478" y1="255" x2="1478" y2="227" stroke="#666"/>
<text x="1478" y="240" text-anchor="middle" font-family="Arial" font-size="15" fill="#333">Validation 124d</text>
<rect x="1510" y="255" width="157" height="42" rx="4" fill="#B54A4A" stroke="white" stroke-width="3"/>
<text x="1588" y="282" text-anchor="middle" font-family="Arial" font-size="17" font-weight="700" fill="white">Test 311d</text>
<text x="232" y="402" text-anchor="end" font-family="Arial" font-size="22" font-weight="700">Long</text>
<rect x="270" y="375" width="1004" height="42" rx="4" fill="#3B73B9" stroke="white" stroke-width="3"/>
<text x="772" y="402" text-anchor="middle" font-family="Arial" font-size="17" font-weight="700" fill="white">Train 2003d</text>
<rect x="1274" y="375" width="111" height="42" rx="4" fill="#D89C2B" stroke="white" stroke-width="3"/>
<line x1="1329" y1="375" x2="1329" y2="347" stroke="#666"/>
<text x="1329" y="360" text-anchor="middle" font-family="Arial" font-size="15" fill="#333">Validation 222d</text>
<rect x="1385" y="375" width="282" height="42" rx="4" fill="#B54A4A" stroke="white" stroke-width="3"/>
<text x="1526" y="402" text-anchor="middle" font-family="Arial" font-size="17" font-weight="700" fill="white">Test 557d</text>
</svg>